<svg width="158" height="31" viewBox="0 0 158 31" fill="none" xmlns="http://www.w3.org/2000/svg">
<circle cx="15.28" cy="15.28" r="15.28" fill="#929292"/>
<circle cx="32.7429" cy="15.28" r="15.28" fill="#AEAEAE" fill-opacity="0.7"/>
<g clip-path="url(#clip0_2899_88483)">
<path d="M77.6847 10.3699L71.9715 20.2426H68.2346L65.4319 12.3496C65.2523 11.8547 65.1085 11.6984 64.6055 11.49C63.4985 11.1037 62.3269 10.8235 61.1201 10.6564L61.192 10.3699H67.1926C68.0037 10.3725 68.6906 10.8041 68.8095 11.3858L70.2827 17.0906L73.9478 10.3699H77.6847ZM92.3089 17.0125C92.3089 14.4075 87.3503 14.2512 87.3863 13.1051C87.3863 12.7404 87.8534 12.3757 88.8954 12.2715C90.0909 12.1905 91.2945 12.3435 92.3808 12.7143L92.9916 10.6303C91.9366 10.3367 90.816 10.1865 89.6859 10.1875C86.2005 10.1875 83.7572 11.5421 83.7212 13.4437C83.6853 14.8764 85.4819 15.6579 86.8114 16.1268C88.1408 16.5957 88.6439 16.9343 88.6439 17.3511C88.6439 18.0024 87.53 18.315 86.5239 18.315C85.2596 18.3403 84.0082 18.1247 82.8948 17.6898L82.248 19.8519C83.4922 20.2139 84.8241 20.3911 86.1646 20.3729C89.8656 20.3989 92.273 19.0704 92.3089 17.0125ZM101.507 20.2426H104.777L101.939 10.3699H98.9204C98.258 10.3641 97.6587 10.6538 97.4112 11.0992L92.0933 20.2426H95.7943L96.5129 18.7578H101.04L101.507 20.2426ZM97.555 16.752L99.4234 13.053L100.501 16.752H97.555ZM82.7151 10.3699L79.8047 20.2426H76.2833L79.1938 10.3699H82.7151Z" fill="#282828"/>
</g>
<path fill-rule="evenodd" clip-rule="evenodd" d="M150.988 9.22285C150.712 9.22051 150.44 9.30193 150.205 9.45781C149.97 9.61369 149.78 9.83775 149.657 10.1044L147.212 16.1459L146.328 10.1044C146.295 9.84348 146.17 9.60621 145.979 9.442C145.788 9.2778 145.545 9.1993 145.302 9.22285H142.202L144.854 19.2606C144.893 19.4702 144.893 19.6858 144.854 19.8953C144.774 20.3111 144.568 20.6861 144.267 20.9608C143.967 21.2356 143.589 21.3942 143.195 21.4116H141.482C141.034 21.4116 140.751 21.7054 140.609 22.3754L140.216 24.8672H143.283C144.268 24.834 145.227 24.5137 146.058 23.9404C146.888 23.3671 147.558 22.5623 147.998 21.6114L154.132 9.22285H150.988Z" fill="#838383"/>
<path fill-rule="evenodd" clip-rule="evenodd" d="M120.865 6.22656C121.782 6.22656 122.229 6.61444 122.066 7.61352L121.804 9.22379H123.91L123.441 12.0565H121.334L120.767 15.5826C120.559 16.758 121.684 16.9696 122.328 16.9696H122.644L122.131 20.0961C121.967 20.0961 121.804 20.0961 121.454 20.0961C119.861 20.0961 116.838 19.6377 117.427 16.0058L118.082 12.0212H116.543L117.012 9.18853H118.529L119.021 6.22656H120.865Z" fill="#838383"/>
<path fill-rule="evenodd" clip-rule="evenodd" d="M138.612 9.39844L138.077 12.7013C138.468 12.9168 138.785 13.2619 138.98 13.6857C139.176 14.1096 139.239 14.5898 139.162 15.0556C139.085 15.5215 138.872 15.9485 138.552 16.2737C138.233 16.5989 137.826 16.8052 137.389 16.8621L136.854 20.165H137.138C138.363 20.164 139.547 19.6889 140.474 18.8264C141.401 17.9639 142.009 16.7713 142.188 15.4662C142.366 14.1611 142.103 12.8303 141.447 11.7165C140.791 10.6026 139.784 9.77997 138.612 9.39844Z" fill="#A3A3A3"/>
<path fill-rule="evenodd" clip-rule="evenodd" d="M136.156 16.5965C135.765 16.3817 135.448 16.0376 135.252 15.6147C135.056 15.1919 134.991 14.7125 135.067 14.2469C135.143 13.7814 135.355 13.3543 135.673 13.0283C135.991 12.7023 136.397 12.4946 136.833 12.4356L137.378 9.13281H137.084C135.862 9.14325 134.685 9.62368 133.763 10.4873C132.842 11.351 132.238 12.5409 132.06 13.8423C131.882 15.1436 132.142 16.4706 132.793 17.5835C133.444 18.6965 134.443 19.522 135.61 19.9111L136.156 16.5965Z" fill="#A3A3A3"/>
<path fill-rule="evenodd" clip-rule="evenodd" d="M125.121 9.22697H126.933C127.85 9.22697 128.298 9.61485 128.134 10.6139L127.937 11.7893C128.268 11.0358 128.779 10.3905 129.418 9.91957C130.056 9.44866 130.8 9.16907 131.572 9.10943C131.699 9.09894 131.827 9.09894 131.954 9.10943L131.375 12.6356C131.153 12.5851 130.926 12.5615 130.699 12.5651C130.097 12.5453 129.503 12.7135 128.987 13.0493C128.472 13.385 128.058 13.8741 127.795 14.4574C127.598 14.9255 127.459 15.4195 127.381 15.9267L126.726 19.9817H123.332L125.121 9.22697Z" fill="#838383"/>
<defs>
<clipPath id="clip0_2899_88483">
<rect width="43.6571" height="30.56" fill="white" transform="translate(61.1201)"/>
</clipPath>
</defs>
</svg>
