<svg width="155" height="29" viewBox="0 0 233 44" fill="none" xmlns="http://www.w3.org/2000/svg"><path d="M38.9152 3.22949H4.66583C2.17728 3.22949 0.159912 5.23386 0.159912 7.70638V38.3992C0.159912 40.8717 2.17728 42.8761 4.66583 42.8761H38.9152C41.4037 42.8761 43.4211 40.8717 43.4211 38.3992V7.70638C43.4211 5.23386 41.4037 3.22949 38.9152 3.22949Z" fill="#825FFF"></path><path d="M11.9806 0H8.27167C7.24575 0 6.41408 0.826314 6.41408 1.84562V4.91647C6.41408 5.93578 7.24575 6.76209 8.27167 6.76209H11.9806C13.0065 6.76209 13.8382 5.93578 13.8382 4.91647V1.84562C13.8382 0.826314 13.0065 0 11.9806 0Z" fill="#1B1464"></path><path d="M35.5606 0H31.8517C30.8258 0 29.9941 0.826314 29.9941 1.84562V4.91647C29.9941 5.93578 30.8258 6.76209 31.8517 6.76209H35.5606C36.5866 6.76209 37.4182 5.93578 37.4182 4.91647V1.84562C37.4182 0.826314 36.5866 0 35.5606 0Z" fill="#1B1464"></path><path d="M33.7378 26.4058C33.377 22.9983 30.4149 20.4512 26.9664 20.5915L25.614 20.6133L25.6328 19.2696C25.774 15.8434 23.2136 12.9004 19.7808 12.5418C15.9966 12.2675 12.705 15.0951 12.4289 18.855C12.4195 18.9672 12.4163 19.0826 12.4132 19.1948L12.1967 32.4103C12.1779 33.2303 12.8305 33.913 13.6558 33.9317C13.6809 33.9317 13.7028 33.9317 13.7279 33.9317L27.0323 33.7229C30.8228 33.6418 33.832 30.5273 33.7504 26.7612C33.7504 26.6428 33.741 26.5243 33.7347 26.4058H33.7378Z" fill="white"></path><path d="M55.2612 37.0996V7.9375H61.0474V31.3507H72.8738V37.0996H55.2612Z" fill="#1B1464"></path><path d="M91.3019 16.2705H97.0881V37.1024H91.2799L91.007 34.9356C90.461 35.74 89.7612 36.3947 88.9109 36.8935C88.0574 37.3923 87.0596 37.6448 85.9143 37.6448C84.3485 37.6448 82.8863 37.3518 81.5339 36.7688C80.1783 36.1858 78.9828 35.3814 77.9473 34.3526C76.9119 33.3238 76.1054 32.1329 75.5249 30.7798C74.9444 29.4268 74.6558 27.9709 74.6558 26.4152C74.6558 24.8595 74.9288 23.5408 75.4747 22.2501C76.0207 20.9594 76.7895 19.8215 77.781 18.8332C78.7726 17.848 79.9147 17.078 81.2075 16.5199C82.5003 15.965 83.8935 15.6875 85.3903 15.6875C86.6768 15.6875 87.8315 15.9587 88.8607 16.5012C89.8868 17.0437 90.7873 17.7295 91.5561 18.5619L91.305 16.2705H91.3019ZM85.7668 32.1204C86.7175 32.1204 87.5773 31.8772 88.3461 31.3909C89.1148 30.9046 89.7236 30.2499 90.1692 29.4237C90.6147 28.5975 90.8407 27.6841 90.8407 26.6833C90.8407 25.6826 90.6179 24.7535 90.1692 23.9336C89.7204 23.1136 89.1148 22.4621 88.3461 21.9757C87.5773 21.4894 86.7175 21.2462 85.7668 21.2462C84.816 21.2462 83.928 21.4894 83.1467 21.9757C82.3622 22.4621 81.741 23.1168 81.2797 23.9429C80.8184 24.7691 80.5862 25.6826 80.5862 26.6833C80.5862 27.6841 80.8216 28.5975 81.2891 29.4237C81.7567 30.2499 82.3811 30.9077 83.1655 31.3909C83.9469 31.8772 84.816 32.1204 85.7668 32.1204Z" fill="#1B1464"></path><path d="M114.007 37.0999H106.524L98.8926 16.2681H105.055L110.255 30.4968L115.454 16.2681H121.639L114.007 37.0999Z" fill="#1B1464"></path><path d="M133.045 37.6422C131.115 37.6422 129.358 37.1496 127.773 36.1644C126.186 35.1793 124.921 33.8512 123.98 32.1864C123.035 30.5185 122.564 28.6791 122.564 26.6651C122.564 25.1531 122.837 23.7314 123.383 22.4064C123.929 21.0815 124.679 19.9123 125.636 18.9054C126.593 17.8984 127.707 17.1096 128.981 16.5422C130.252 15.9717 131.608 15.688 133.048 15.688C134.711 15.688 136.233 16.0434 137.607 16.7511C138.985 17.4588 140.152 18.4252 141.109 19.6474C142.066 20.8695 142.75 22.2506 143.164 23.7938C143.575 25.3339 143.644 26.9394 143.362 28.6042H128.812C128.994 29.2153 129.276 29.7671 129.662 30.2597C130.045 30.7523 130.522 31.1451 131.087 31.4382C131.652 31.7312 132.307 31.884 133.048 31.8964C133.776 31.9089 134.444 31.7437 135.059 31.3976C135.674 31.0516 136.198 30.5839 136.631 30.0009L142.543 31.354C141.689 33.1996 140.419 34.7116 138.727 35.8839C137.036 37.0561 135.141 37.6453 133.045 37.6453V37.6422ZM128.602 24.3518H137.513C137.331 23.6566 137.024 23.0331 136.591 22.4781C136.158 21.9232 135.637 21.4867 135.028 21.1656C134.419 20.8476 133.76 20.6855 133.048 20.6855C132.336 20.6855 131.696 20.8445 131.087 21.1656C130.478 21.4867 129.96 21.9201 129.537 22.4688C129.11 23.0175 128.799 23.6472 128.605 24.3549L128.602 24.3518Z" fill="#1B1464"></path><path d="M166.215 23.8525V37.1024H160.429V25.4363C160.429 24.7005 160.25 24.0365 159.895 23.4472C159.537 22.858 159.064 22.3872 158.471 22.0412C157.878 21.6951 157.216 21.5205 156.491 21.5205C155.766 21.5205 155.101 21.6951 154.498 22.0412C153.896 22.3872 153.422 22.858 153.074 23.4472C152.725 24.0365 152.55 24.7005 152.55 25.4363V37.1024H146.763L146.741 16.2705H152.528L152.55 17.8106C153.249 17.1434 154.068 16.6228 155.013 16.2487C155.957 15.8746 156.952 15.6875 158 15.6875C159.522 15.6875 160.902 16.0554 162.142 16.7911C163.378 17.5269 164.367 18.5089 165.11 19.7373C165.851 20.9656 166.221 22.3374 166.221 23.8525H166.215Z" fill="#1B1464"></path><path d="M185.399 5.85498H191.185V37.1028H185.399V34.8955C184.756 35.6999 183.959 36.3608 183.008 36.8752C182.057 37.3896 180.975 37.6452 179.757 37.6452C178.232 37.6452 176.808 37.3615 175.48 36.791C174.153 36.2205 172.983 35.4349 171.969 34.4279C170.956 33.4209 170.162 32.258 169.591 30.9393C169.016 29.6205 168.731 28.202 168.731 26.69C168.731 25.1779 169.016 23.7594 169.591 22.4407C170.165 21.1219 170.956 19.959 171.969 18.9521C172.983 17.9451 174.153 17.1563 175.48 16.5889C176.808 16.0184 178.232 15.7347 179.757 15.7347C180.975 15.7347 182.057 15.9872 183.008 16.4954C183.959 17.0035 184.756 17.6645 185.399 18.4844V5.85498ZM179.842 32.1208C180.793 32.1208 181.653 31.8777 182.421 31.3913C183.19 30.905 183.799 30.2503 184.244 29.4241C184.69 28.5979 184.916 27.6845 184.916 26.6837C184.916 25.683 184.693 24.7539 184.244 23.934C183.796 23.1141 183.19 22.4625 182.421 21.9761C181.653 21.4898 180.793 21.2466 179.842 21.2466C178.891 21.2466 178.003 21.4898 177.222 21.9761C176.437 22.4625 175.816 23.1172 175.355 23.9433C174.894 24.7695 174.661 25.683 174.661 26.6837C174.661 27.6845 174.897 28.5979 175.364 29.4241C175.832 30.2503 176.456 30.9081 177.241 31.3913C178.022 31.8777 178.891 32.1208 179.842 32.1208Z" fill="#1B1464"></path><path d="M205.064 37.6417C203.135 37.6417 201.377 37.1491 199.793 36.164C198.205 35.1788 196.94 33.8507 195.999 32.1859C195.055 30.518 194.584 28.6786 194.584 26.6646C194.584 25.1526 194.857 23.7309 195.403 22.4059C195.949 21.081 196.699 19.9119 197.656 18.9049C198.613 17.8979 199.727 17.1091 201.001 16.5417C202.272 15.9712 203.627 15.6875 205.067 15.6875C206.731 15.6875 208.252 16.0429 209.627 16.7506C211.004 17.4583 212.171 18.4248 213.129 19.6469C214.086 20.869 214.77 22.2501 215.184 23.7933C215.595 25.3334 215.664 26.939 215.381 28.6038H200.831C201.013 29.2148 201.296 29.7666 201.682 30.2592C202.065 30.7518 202.542 31.1446 203.106 31.4377C203.671 31.7307 204.327 31.8835 205.067 31.896C205.795 31.9084 206.464 31.7432 207.079 31.3971C207.694 31.0511 208.218 30.5834 208.651 30.0004L214.563 31.3535C213.709 33.1991 212.438 34.7112 210.747 35.8834C209.056 37.0556 207.16 37.6448 205.064 37.6448V37.6417ZM200.621 24.3513H209.533C209.351 23.6561 209.043 23.0326 208.61 22.4777C208.177 21.9227 207.656 21.4863 207.047 21.1651C206.439 20.8471 205.78 20.685 205.067 20.685C204.355 20.685 203.715 20.844 203.106 21.1651C202.498 21.4863 201.98 21.9196 201.556 22.4683C201.129 23.017 200.819 23.6468 200.624 24.3545L200.621 24.3513Z" fill="#1B1464"></path><path d="M218.777 37.0999L218.755 16.2681H224.541L224.563 17.8081C225.263 17.141 226.082 16.6203 227.026 16.2462C227.971 15.8721 228.965 15.6851 230.013 15.6851C230.782 15.6851 231.551 15.7973 232.32 16.0186L230.035 21.8299C229.533 21.621 229.022 21.5181 228.504 21.5181C227.776 21.5181 227.114 21.6927 226.512 22.0387C225.909 22.3848 225.435 22.8556 225.087 23.4448C224.739 24.034 224.563 24.6981 224.563 25.4338V37.0999H218.777Z" fill="#1B1464"></path></svg>